<svg width="128" height="128" viewBox="0 0 128 128" xmlns="http://www.w3.org/2000/svg">
  <!-- Background Circle -->
  <defs>
    <radialGradient id="goldenGlow" cx="50%" cy="50%" r="50%">
      <stop offset="0%" style="stop-color:#fff9c4;stop-opacity:1" />
      <stop offset="30%" style="stop-color:#ffeb3b;stop-opacity:1" />
      <stop offset="70%" style="stop-color:#ffd700;stop-opacity:1" />
      <stop offset="100%" style="stop-color:#ff8f00;stop-opacity:1" />
    </radialGradient>
    <filter id="glow" x="-50%" y="-50%" width="200%" height="200%">
      <feGaussianBlur stdDeviation="3" result="coloredBlur"/>
      <feMerge> 
        <feMergeNode in="coloredBlur"/>
        <feMergeNode in="SourceGraphic"/>
      </feMerge>
    </filter>
  </defs>
  
  <!-- Main Circle -->
  <circle cx="64" cy="64" r="56" fill="url(#goldenGlow)" filter="url(#glow)" stroke="#ff8f00" stroke-width="2"/>
  
  <!-- Inner Star -->
  <path d="M64 20 L72 44 L96 44 L78 60 L86 84 L64 68 L42 84 L50 60 L32 44 L56 44 Z" 
        fill="#fff9c4" 
        stroke="#ff8f00" 
        stroke-width="2" 
        filter="url(#glow)"/>
  
  <!-- Sparkle Effects -->
  <circle cx="30" cy="35" r="3" fill="#ffeb3b" opacity="0.8"/>
  <circle cx="98" cy="45" r="2" fill="#ffd700" opacity="0.6"/>
  <circle cx="25" cy="85" r="2.5" fill="#fff9c4" opacity="0.7"/>
  <circle cx="95" cy="90" r="2" fill="#ffeb3b" opacity="0.8"/>
  
  <!-- Small Stars -->
  <path d="M25 25 L27 29 L31 29 L28 32 L29 36 L25 34 L21 36 L22 32 L19 29 L23 29 Z" 
        fill="#ffd700" opacity="0.6"/>
  <path d="M100 25 L102 29 L106 29 L103 32 L104 36 L100 34 L96 36 L97 32 L94 29 L98 29 Z" 
        fill="#ffeb3b" opacity="0.7"/>
</svg> 